<?xml version="1.0" encoding="UTF-8"?>
<svg id="_レイヤー_2" data-name="レイヤー 2" xmlns="http://www.w3.org/2000/svg" viewBox="0 0 46.69 48.56">
  <defs>
    <style>
      .cls-1 {
        fill: #4d4532;
      }
    </style>
  </defs>
  <g id="_レイヤー_1-2" data-name="レイヤー 1">
    <g>
      <path class="cls-1" d="m30.63,19.38l-3.06-1.28c-.44.82-.93,1.68-1.46,2.59l3.6,1.51v22.15l-12.73-5.33v-10.92l-.28-.39c-.15-.21-.75-1.05-1.57-2.27v13.58l-12.18,5.1v-22.15l8-3.35c-.18-.33-.35-.65-.53-.98-.3-.58-.57-1.13-.82-1.65L0,20v28.55l16.05-6.72,14.58,6.11,16.06-6.72V12.66l-16.06,6.72Zm13.1,19.87l-12.18,5.1v-22.15l12.18-5.1v22.15Z"/>
      <path class="cls-1" d="m11.78,16.93c2.53,4.86,6.14,9.87,6.16,9.9l1.19,1.66,1.19-1.66s2.11-2.94,4.23-6.47c1.06-1.77,2.12-3.69,2.94-5.5.41-.91.76-1.79,1.01-2.63.25-.84.41-1.64.42-2.44,0-5.41-4.38-9.79-9.79-9.79-5.41,0-9.79,4.38-9.79,9.79,0,.79.17,1.59.42,2.44.44,1.47,1.17,3.08,2.02,4.7Zm2.5-11.99c1.25-1.24,2.95-2.01,4.85-2.01,1.9,0,3.6.77,4.85,2.01,1.24,1.25,2.01,2.95,2.01,4.85,0,.35-.09.92-.29,1.59-.35,1.18-1.02,2.67-1.81,4.19-1.19,2.29-2.69,4.69-3.87,6.51-.32.49-.61.92-.87,1.31-.83-1.23-1.98-2.98-3.11-4.88-.99-1.66-1.95-3.43-2.65-5.02-.35-.79-.63-1.53-.82-2.18-.19-.64-.28-1.18-.28-1.53,0-1.9.77-3.6,2.01-4.85Z"/>
      <path class="cls-1" d="m19.13,12.97c1.76,0,3.18-1.43,3.18-3.18s-1.43-3.18-3.18-3.18-3.18,1.42-3.18,3.18c0,1.76,1.43,3.18,3.18,3.18Z"/>
    </g>
  </g>
</svg>