<?xml version="1.0" encoding="UTF-8"?>
<svg id="_レイヤー_2" data-name="レイヤー 2" xmlns="http://www.w3.org/2000/svg" viewBox="0 0 32.1 41.86">
  <defs>
    <style>
      .cls-1 {
        fill: #364aa1;
      }
    </style>
  </defs>
  <g id="_レイヤー_1-2" data-name="レイヤー 1">
    <path class="cls-1" d="m2.87,1.77C0,3.64-.57,9.47.51,14.22c.85,3.7,2.64,8.67,5.68,13.34,2.85,4.4,6.83,8.34,9.87,10.62,3.9,2.93,9.45,4.79,12.33,2.93,1.45-.94,3.62-3.52,3.71-3.98,0,0-1.27-1.95-1.55-2.38l-4.25-6.55c-.32-.49-2.3-.04-3.3.53-1.36.77-2.61,2.83-2.61,2.83-.93.54-1.71,0-3.34-.75-2-.92-4.25-3.78-6.04-6.37-1.64-2.69-3.33-5.91-3.36-8.12-.02-1.79-.19-2.72.68-3.35,0,0,2.39-.3,3.65-1.23.93-.69,2.14-2.31,1.83-2.8l-4.25-6.55C9.29,1.96,8.02,0,8.02,0c-.46-.1-3.7.82-5.15,1.77Z"/>
  </g>
</svg>