<?xml version="1.0" encoding="UTF-8"?>
<svg id="_レイヤー_2" data-name="レイヤー 2" xmlns="http://www.w3.org/2000/svg" xmlns:xlink="http://www.w3.org/1999/xlink" viewBox="0 0 750 180.15">
  <defs>
    <style>
      .cls-1 {
        fill: #fdfaf3;
      }

      .cls-2 {
        clip-path: url(#clippath);
      }

      .cls-3 {
        fill: none;
      }
    </style>
    <clipPath id="clippath">
      <rect class="cls-3" y="0" width="750" height="180.15"/>
    </clipPath>
  </defs>
  <g id="_レイヤー_1-2" data-name="レイヤー 1">
    <g class="cls-2">
      <path class="cls-1" d="m783.47,149.75c-57.65,8.09-59.19-13.93-117.4-13.93s-58.21,14-116.43,14-58.21-14-116.43-14c-58.21,0-58.21,14-116.43,14-58.21,0-58.21-14-116.43-14s-58.22,14-116.43,14-57.81-5.84-115.46-13.93c-8.09-1.13-7.97-1.24-7.97-9.4s14-8.17,14-16.34-14-8.17-14-16.33,14-8.17,14-16.34-14-8.17-14-16.34,14-8.17,14-16.34-16.06-22.14-7.97-23.27c57.65-8.09,59.19,13.93,117.4,13.93s58.21-14,116.43-14,58.21,14,116.43,14,58.21-14,116.43-14,58.21,14,116.43,14,58.22-14,116.43-14,57.81,5.84,115.46,13.93c8.09,1.13,7.97,1.24,7.97,9.4s-14,8.17-14,16.34c0,8.17,14,8.17,14,16.33s-14,8.17-14,16.34c0,8.17,14,8.17,14,16.34s-15.69,9.99-13.81,17.95c2.92,12.41,15.88,20.53,7.79,21.67Z"/>
    </g>
  </g>
</svg>